<svg width="42" height="24" viewBox="0 0 42 24" fill="none" xmlns="http://www.w3.org/2000/svg">
<path d="M38.5 1V2H40.25V22H38.5V23H3.5V22H1.75V2H3.5V1H38.5Z" fill="#373C3A"/>
<g clip-path="url(#clip0_173_5541)">
<path d="M25.9497 16.1251L25.1248 16.9501L24.7123 16.5376L24.2998 16.9501L21 13.6502L17.7002 16.9501L17.2877 16.5376L16.8752 16.9501L16.0503 16.1251L16.4627 15.7126L16.0503 15.3002L19.3501 12.0003L16.0503 8.70049L16.4627 8.28801L16.0503 7.87553L16.8752 7.05057L17.2877 7.46305L17.7002 7.05057L21 10.3504L24.2998 7.05057L24.7123 7.46305L25.1248 7.05057L25.9497 7.87553L25.5373 8.28801L25.9497 8.70049L22.6499 12.0003L25.9497 15.3002L25.5373 15.7126L25.9497 16.1251Z" fill="#DAE4E1"/>
</g>
<defs>
<clipPath id="clip0_173_5541">
<rect width="14" height="14" fill="white" transform="translate(21 2.10059) rotate(45)"/>
</clipPath>
</defs>
</svg>
