<svg width="148" height="53" viewBox="0 0 148 53" fill="none" xmlns="http://www.w3.org/2000/svg">
<rect width="148" height="52.7123" rx="26.3562" fill="#F05022"/>
<path d="M118.343 47.3138C115.196 47.3138 112.698 46.7137 110.849 45.5135C109.033 44.3133 107.735 42.3832 106.957 39.7233C106.178 37.0633 105.789 33.5275 105.789 29.1159V25.2233C105.789 20.8117 106.178 17.2759 106.957 14.616C107.735 11.956 109.033 10.0259 110.849 8.82572C112.698 7.6255 115.196 7.02539 118.343 7.02539C121.489 7.02539 123.971 7.6255 125.787 8.82572C127.636 10.0259 128.95 11.956 129.729 14.616C130.507 17.2759 130.896 20.8117 130.896 25.2233V29.1159C130.896 33.5275 130.507 37.0633 129.729 39.7233C128.95 42.3832 127.636 44.3133 125.787 45.5135C123.971 46.7137 121.489 47.3138 118.343 47.3138ZM118.343 42.8373C120.321 42.8373 121.862 42.4319 122.965 41.6209C124.068 40.7775 124.847 39.3664 125.301 37.3877C125.787 35.3765 126.031 32.6193 126.031 29.1159V25.2233C126.031 21.72 125.787 18.9789 125.301 17.0002C124.847 14.989 124.068 13.5779 122.965 12.767C121.862 11.9236 120.321 11.5019 118.343 11.5019C116.364 11.5019 114.807 11.9236 113.672 12.767C112.569 13.5779 111.79 14.989 111.336 17.0002C110.882 18.9789 110.655 21.72 110.655 25.2233V29.1159C110.655 32.6193 110.882 35.3765 111.336 37.3877C111.823 39.3664 112.617 40.7775 113.72 41.6209C114.856 42.4319 116.396 42.8373 118.343 42.8373Z" fill="#DAE4E1"/>
<path d="M86.8358 46.6311L75.6445 7.70508H80.8022L89.1713 37.6295L97.5404 7.70508H102.698L91.5069 46.6311H86.8358Z" fill="#DAE4E1"/>
<path d="M48.3652 46.6311V7.70508H53.5716L71.6235 46.6311H66.7578V7.70508H71.6235V46.6311H66.4172L48.3652 7.70508H53.231V46.6311H48.3652Z" fill="#DAE4E1"/>
<path d="M28.3845 46.6311V7.70508H33.2502V46.6311H28.3845ZM20.502 46.6311V42.1546H41.1327V46.6311H20.502ZM20.502 12.1816V7.70508H41.1327V12.1816H20.502Z" fill="#DAE4E1"/>
</svg>
