<svg width="55" height="20" viewBox="0 0 55 20" fill="none" xmlns="http://www.w3.org/2000/svg">
<path d="M0.109375 9.79736C0.109375 4.39883 4.48575 0.0224609 9.88428 0.0224609H45.2243C50.6228 0.0224609 54.9992 4.39883 54.9992 9.79736C54.9992 15.1959 50.6228 19.5723 45.2243 19.5723H9.88427C4.48574 19.5723 0.109375 15.1959 0.109375 9.79736Z" fill="#373C3A"/>
<path d="M44.0004 17.5695C42.8334 17.5695 41.907 17.347 41.2213 16.9018C40.5476 16.4567 40.0663 15.7409 39.7776 14.7543C39.4889 13.7678 39.3445 12.4565 39.3445 10.8203V9.37664C39.3445 7.74048 39.4889 6.42913 39.7776 5.44262C40.0663 4.45611 40.5476 3.74029 41.2213 3.29515C41.907 2.85002 42.8334 2.62745 44.0004 2.62745C45.1673 2.62745 46.0877 2.85002 46.7614 3.29515C47.4472 3.74029 47.9344 4.45611 48.2231 5.44262C48.5119 6.42913 48.6562 7.74048 48.6562 9.37664V10.8203C48.6562 12.4565 48.5119 13.7678 48.2231 14.7543C47.9344 15.7409 47.4472 16.4567 46.7614 16.9018C46.0877 17.347 45.1673 17.5695 44.0004 17.5695ZM44.0004 15.9093C44.7342 15.9093 45.3057 15.7589 45.7147 15.4581C46.1238 15.1453 46.4125 14.622 46.5809 13.8881C46.7614 13.1422 46.8516 12.1196 46.8516 10.8203V9.37664C46.8516 8.07733 46.7614 7.06074 46.5809 6.32687C46.4125 5.58097 46.1238 5.05764 45.7147 4.75688C45.3057 4.44408 44.7342 4.28768 44.0004 4.28768C43.2665 4.28768 42.689 4.44408 42.268 4.75688C41.8589 5.05764 41.5702 5.58097 41.4017 6.32687C41.2333 7.06074 41.1491 8.07733 41.1491 9.37664V10.8203C41.1491 12.1196 41.2333 13.1422 41.4017 13.8881C41.5822 14.622 41.877 15.1453 42.286 15.4581C42.7071 15.7589 43.2785 15.9093 44.0004 15.9093Z" fill="#DAE4E1"/>
<path d="M32.3138 17.3164L28.1632 2.87966H30.0761L33.18 13.9779L36.2839 2.87966H38.1968L34.0462 17.3164H32.3138Z" fill="#DAE4E1"/>
<path d="M18.0463 17.3164V2.87966H19.9773L26.6723 17.3164H24.8677V2.87966H26.6723V17.3164H24.7414L18.0463 2.87966H19.8509V17.3164H18.0463Z" fill="#DAE4E1"/>
<path d="M10.6363 17.3164V2.87966H12.4409V17.3164H10.6363ZM7.71287 17.3164V15.6562H15.3644V17.3164H7.71287ZM7.71287 4.53989V2.87966H15.3644V4.53989H7.71287Z" fill="#DAE4E1"/>
</svg>
