<svg width="18" height="18" viewBox="0 0 18 18" fill="none" xmlns="http://www.w3.org/2000/svg">
<path fill-rule="evenodd" clip-rule="evenodd" d="M4 0H14V2H16V4H18V14H16V16H14V18H4V16H2V14H0V4L2 4V2H4L4 0ZM13.666 5.5H10.166V6.66667H12.4993V7.83333H11.3327V9H12.4994L12.4993 7.83333H13.666V10.1667H14.8327L14.8327 6.66667V5.5H13.666ZM7.83268 7.83333H6.66602V9H5.49935V10.1667L4.33268 10.1667V11.3333L3.16602 11.3333V12.5H4.33268L4.33268 11.3333H5.49935L5.49935 10.1667H6.66602V9H7.83268L7.83268 10.1667H8.99935L8.99935 11.3333H10.166V10.1667L11.3327 10.1667V9H10.166V10.1667L8.99935 10.1667V9H7.83268V7.83333Z" fill="#3B3B3B"/>
</svg>
